<svg width="45" height="45" viewBox="0 0 85 85" fill="none" xmlns="http://www.w3.org/2000/svg" class="menuanmim_front">

						<g clip-path="url(#clip02)">

						<path d="M85 37.1448L80.6702 39.5375H76.6823L80.5563 37.3727L1.937 2.96247V81.5818L3.41823 80.7842H7.40617L0 85V0L85 37.1448Z" fill="#fff"></path>

						<path d="M29.5114 36.689H33.8412V59.5911H29.5114V57.1984C28.258 58.7935 26.435 59.5911 24.0422 59.5911C21.8773 59.5911 20.0543 58.7935 18.8009 57.1984C17.4336 55.6032 16.75 53.5522 16.75 51.0455C16.75 48.5388 17.4336 46.374 18.8009 44.8927C20.1682 43.2975 21.8773 42.5 24.1562 42.5C26.5489 42.5 28.372 43.2975 29.6253 44.8927V36.689H29.5114ZM25.4095 55.4892C26.6629 55.4892 27.6883 55.0335 28.4859 54.2359C29.1696 53.3244 29.6253 52.2989 29.6253 50.9316C29.6253 49.5643 29.2835 48.5388 28.4859 47.6273C27.8023 46.8297 26.7768 46.374 25.4095 46.374C24.0422 46.374 23.0168 46.8297 22.2192 47.6273C21.4216 48.4249 21.0798 49.5643 21.0798 50.9316C21.0798 52.2989 21.4216 53.3244 22.2192 54.2359C23.1307 55.1474 24.1562 55.4892 25.4095 55.4892Z" fill="#fff"></path>

						<path d="M44.7787 59.4773C41.8162 59.4773 39.5374 58.6797 37.9422 57.1985C36.3471 55.6033 35.4355 53.5524 35.4355 50.9317C35.4355 49.5644 35.6634 48.3111 36.2331 47.1717C36.6889 46.0323 37.3725 45.1207 38.1701 44.4371C38.9677 43.7535 39.8792 43.1837 40.9047 42.8419C41.9302 42.5001 42.9557 42.2722 43.9811 42.2722C46.4878 42.2722 48.5388 43.0698 50.02 44.665C51.6152 46.2602 52.2988 48.425 52.2988 51.2736C52.2988 51.8433 52.2988 52.299 52.1849 52.7548H39.9932C40.2211 53.6663 40.7908 54.35 41.5884 54.9197C42.3859 55.4894 43.5254 55.8312 45.0066 55.8312C45.6902 55.8312 46.4878 55.7173 47.1715 55.4894C47.8551 55.2615 48.3109 55.0336 48.6527 54.8057L49.1085 54.4639L51.5012 56.7427C51.5012 56.8567 51.3873 56.8567 51.2733 57.0845C51.1594 57.1985 50.9315 57.4264 50.4758 57.7682C50.02 58.11 49.6782 58.4518 49.1085 58.6797C48.6527 58.9076 47.9691 59.1355 47.2854 59.3634C46.3739 59.4773 45.5763 59.4773 44.7787 59.4773ZM43.9811 46.2602C42.7278 46.2602 41.8162 46.602 41.1326 47.2856C40.4489 47.9693 40.1071 48.8808 39.9932 49.7923H47.8551C47.8551 48.7669 47.5133 47.9693 46.8296 47.2856C46.0321 46.602 45.1205 46.2602 43.9811 46.2602Z" fill="#fff"></path>

						<path d="M65.1747 59.5911V57.4262C64.1492 58.9074 62.4401 59.5911 60.1613 59.5911C58.2243 59.5911 56.7431 59.1353 55.6036 58.2238C54.4642 57.3123 53.8945 56.0589 53.8945 54.4637C53.8945 52.7546 54.5782 51.5013 55.9455 50.5897C57.3128 49.6782 58.9079 49.2224 60.6171 49.2224C62.0983 49.2224 63.5795 49.4503 65.0607 49.9061C65.0607 47.5133 63.9213 46.3739 61.4146 46.3739C60.3892 46.3739 59.3637 46.4879 58.3382 46.7157C57.3128 46.9436 56.5152 47.2855 55.8315 47.5133L54.6921 44.0951C57.0849 42.9557 59.4776 42.386 61.9843 42.386C64.491 42.386 66.428 42.9557 67.6814 44.209C68.9347 45.4624 69.5044 47.3994 69.5044 49.9061V59.4771H65.1747V59.5911ZM61.4146 56.2868C62.4401 56.2868 63.3516 56.0589 64.0353 55.6031C64.7189 55.1474 65.0607 54.3498 65.0607 53.4383V52.2989C64.0353 51.957 62.8959 51.7292 61.7565 51.7292C60.731 51.7292 59.9334 51.957 59.2498 52.2989C58.5661 52.6407 58.2243 53.2104 58.2243 54.008C58.2243 54.6916 58.5661 55.2613 59.1358 55.7171C59.7055 56.1729 60.5031 56.2868 61.4146 56.2868Z" fill="#fff"></path>

						<path d="M78.3905 59.7051C75.542 59.7051 73.0353 58.9075 70.9844 57.4263L72.5796 54.5777C73.2632 55.0335 74.1747 55.4893 75.3141 55.8311C76.3396 56.1729 77.3651 56.2869 78.2766 56.2869C79.9857 56.2869 80.8973 55.8311 80.8973 54.8056C80.8973 54.3499 80.6694 53.8941 80.2136 53.6662C79.7578 53.3244 79.0742 53.2105 78.3905 53.0965C77.7069 52.9826 77.0233 52.8686 76.1117 52.6408C75.3141 52.4129 74.5165 52.185 73.719 51.8432C73.0353 51.5013 72.3517 51.0456 71.8959 50.3619C71.4401 49.6783 71.2123 48.7668 71.2123 47.7413C71.2123 46.0322 71.782 44.7788 73.0353 43.8673C74.2887 42.9558 75.8838 42.5 77.7069 42.5C80.2136 42.5 82.3785 43.0697 84.0876 44.2091L82.7203 47.1716C81.1251 46.2601 79.53 45.8043 77.8208 45.8043C76.2257 45.8043 75.4281 46.2601 75.4281 47.2855C75.4281 47.8552 75.7699 48.1971 76.4535 48.4249C77.1372 48.6528 77.9348 48.8807 78.8463 49.1086C79.7578 49.2225 80.6694 49.4504 81.6948 49.7922C82.6064 50.0201 83.404 50.5898 84.0876 51.3874C84.7713 52.185 85.1131 53.2105 85.1131 54.4638C85.1131 56.1729 84.5434 57.4263 83.29 58.3378C82.0367 59.1354 80.4415 59.7051 78.3905 59.7051Z" fill="#fff"></path>

						<path d="M25.979 80.7844V84.7723H10.9388V81.1262L18.5729 74.5176C19.7123 73.6061 20.5099 72.8085 20.8517 72.1249C21.1935 71.5552 21.4214 70.8715 21.4214 70.0739C21.4214 69.1624 21.1935 68.4788 20.6238 67.9091C20.0541 67.4533 19.3705 67.2254 18.5729 67.2254C17.7753 67.2254 16.9777 67.5672 16.408 68.1369C15.8383 68.7066 15.3825 69.5042 15.1546 70.5297C14.9268 70.4158 13.3316 70.0739 10.7109 69.3903C11.1667 67.6812 12.0782 66.1999 13.4455 64.9466C14.9268 63.8072 16.5219 63.1235 18.4589 63.1235C20.7377 63.1235 22.5608 63.8072 24.042 65.0605C25.4093 66.4278 26.2069 68.023 26.2069 69.96C26.2069 71.4412 25.8651 72.6946 25.1814 73.834C24.4978 74.9734 23.2445 76.2268 21.3075 77.5941L17.6613 80.6705H25.979V80.7844Z" fill="#fff"></path>

						<path d="M32.1319 63.5791H27.5742V84.8861H32.1319V63.5791Z" fill="#fff"></path>

						<path d="M50.4752 67.4531H44.4364V84.7721H39.8787V67.4531H33.8398V63.5791H50.4752V67.4531Z" fill="#fff"></path>

						<path d="M15.7237 38.3982C15.7237 39.8795 14.5843 41.0189 13.1031 41.0189C11.6218 41.0189 10.4824 39.8795 10.4824 38.3982C10.4824 36.917 11.6218 35.7776 13.1031 35.7776C14.5843 35.7776 15.7237 36.917 15.7237 38.3982Z" fill="#fff"></path>

						<path d="M15.2679 42.386H10.8242V59.4771H15.2679V42.386Z" fill="#fff"></path>

						</g>

						<defs>

						<clipPath id="clip0">

						<rect width="85" height="85" fill="#fff"></rect>

						</clipPath>

						</defs>

					</svg>